<svg width="292" height="48" viewBox="0 0 292 48" fill="none" xmlns="http://www.w3.org/2000/svg">
<g clip-path="url(#clip0)">
<mask id="mask0" mask-type="alpha" maskUnits="userSpaceOnUse" x="3" y="11" width="281" height="37">
<path d="M20.4082 21.0703C20.4082 23.7539 19.5293 25.8105 17.7715 27.2402C16.0137 28.6699 13.5117 29.3848 10.2656 29.3848H7.59375V39H3.39258V13.3008H10.793C14.0039 13.3008 16.4062 13.957 18 15.2695C19.6055 16.582 20.4082 18.5156 20.4082 21.0703ZM7.59375 25.8516H9.82617C11.9824 25.8516 13.5645 25.4766 14.5723 24.7266C15.5801 23.9766 16.084 22.8047 16.084 21.2109C16.084 19.7344 15.6328 18.6328 14.7305 17.9062C13.8281 17.1797 12.4219 16.8164 10.5117 16.8164H7.59375V25.8516ZM42.3457 29.2441C42.3457 32.4199 41.5312 34.8984 39.9023 36.6797C38.2734 38.4609 36.0059 39.3516 33.0996 39.3516C31.2832 39.3516 29.6777 38.9414 28.2832 38.1211C26.8887 37.3008 25.8164 36.123 25.0664 34.5879C24.3164 33.0527 23.9414 31.2715 23.9414 29.2441C23.9414 26.0918 24.75 23.6309 26.3672 21.8613C27.9844 20.0918 30.2637 19.207 33.2051 19.207C36.0176 19.207 38.2441 20.1152 39.8848 21.9316C41.5254 23.7363 42.3457 26.1738 42.3457 29.2441ZM28.1953 29.2441C28.1953 33.7324 29.8535 35.9766 33.1699 35.9766C36.4512 35.9766 38.0918 33.7324 38.0918 29.2441C38.0918 24.8027 36.4395 22.582 33.1348 22.582C31.4004 22.582 30.1406 23.1562 29.3555 24.3047C28.582 25.4531 28.1953 27.0996 28.1953 29.2441ZM51.0996 28.7344L53.4375 25.8164L59.3086 19.5586H64.0723L56.25 27.9082L64.5645 39H59.7129L53.4727 30.4746L51.2051 32.3379V39H47.1094V11.6484H51.2051V24.9902L50.9941 28.7344H51.0996ZM76.2012 39.3516C73.1777 39.3516 70.8105 38.4727 69.0996 36.7148C67.4004 34.9453 66.5508 32.5137 66.5508 29.4199C66.5508 26.2441 67.3418 23.748 68.9238 21.9316C70.5059 20.1152 72.6797 19.207 75.4453 19.207C78.0117 19.207 80.0391 19.9863 81.5273 21.5449C83.0156 23.1035 83.7598 25.248 83.7598 27.9785V30.2109H70.8047C70.8633 32.0977 71.373 33.5508 72.334 34.5703C73.2949 35.5781 74.6484 36.082 76.3945 36.082C77.543 36.082 78.6094 35.9766 79.5938 35.7656C80.5898 35.543 81.6562 35.1797 82.793 34.6758V38.0332C81.7852 38.5137 80.7656 38.8535 79.7344 39.0527C78.7031 39.252 77.5254 39.3516 76.2012 39.3516ZM75.4453 22.3359C74.1328 22.3359 73.0781 22.752 72.2812 23.584C71.4961 24.416 71.0273 25.6289 70.875 27.2227H79.6992C79.6758 25.6172 79.2891 24.4043 78.5391 23.584C77.7891 22.752 76.7578 22.3359 75.4453 22.3359ZM105.908 21.0703C105.908 23.7539 105.029 25.8105 103.271 27.2402C101.514 28.6699 99.0117 29.3848 95.7656 29.3848H93.0938V39H88.8926V13.3008H96.293C99.5039 13.3008 101.906 13.957 103.5 15.2695C105.105 16.582 105.908 18.5156 105.908 21.0703ZM93.0938 25.8516H95.3262C97.4824 25.8516 99.0645 25.4766 100.072 24.7266C101.08 23.9766 101.584 22.8047 101.584 21.2109C101.584 19.7344 101.133 18.6328 100.23 17.9062C99.3281 17.1797 97.9219 16.8164 96.0117 16.8164H93.0938V25.8516ZM122.766 39L121.939 36.293H121.799C120.861 37.4766 119.918 38.2852 118.969 38.7188C118.02 39.1406 116.801 39.3516 115.312 39.3516C113.402 39.3516 111.908 38.8359 110.83 37.8047C109.764 36.7734 109.23 35.3145 109.23 33.4277C109.23 31.4238 109.975 29.9121 111.463 28.8926C112.951 27.873 115.219 27.3164 118.266 27.2227L121.623 27.1172V26.0801C121.623 24.8379 121.33 23.9121 120.744 23.3027C120.17 22.6816 119.273 22.3711 118.055 22.3711C117.059 22.3711 116.104 22.5176 115.189 22.8105C114.275 23.1035 113.396 23.4492 112.553 23.8477L111.217 20.8945C112.271 20.3438 113.426 19.9277 114.68 19.6465C115.934 19.3535 117.117 19.207 118.23 19.207C120.703 19.207 122.566 19.7461 123.82 20.8242C125.086 21.9023 125.719 23.5957 125.719 25.9043V39H122.766ZM116.613 36.1875C118.113 36.1875 119.314 35.7715 120.217 34.9395C121.131 34.0957 121.588 32.918 121.588 31.4062V29.7188L119.092 29.8242C117.146 29.8945 115.729 30.2227 114.838 30.8086C113.959 31.3828 113.52 32.2676 113.52 33.4629C113.52 34.3301 113.777 35.0039 114.293 35.4844C114.809 35.9531 115.582 36.1875 116.613 36.1875ZM141.346 19.207C142.178 19.207 142.863 19.2656 143.402 19.3828L142.998 23.2324C142.412 23.0918 141.803 23.0215 141.17 23.0215C139.518 23.0215 138.176 23.5605 137.145 24.6387C136.125 25.7168 135.615 27.1172 135.615 28.8398V39H131.484V19.5586H134.719L135.264 22.9863H135.475C136.119 21.8262 136.957 20.9062 137.988 20.2266C139.031 19.5469 140.15 19.207 141.346 19.207ZM154.266 36.0117C155.273 36.0117 156.281 35.8535 157.289 35.5371V38.6484C156.832 38.8477 156.24 39.0117 155.514 39.1406C154.799 39.2812 154.055 39.3516 153.281 39.3516C149.367 39.3516 147.41 37.2891 147.41 33.1641V22.6875H144.756V20.8594L147.604 19.3477L149.01 15.2344H151.559V19.5586H157.096V22.6875H151.559V33.0938C151.559 34.0898 151.805 34.8281 152.297 35.3086C152.801 35.7773 153.457 36.0117 154.266 36.0117ZM158.238 19.5586H162.738L166.693 30.5801C167.291 32.1504 167.689 33.627 167.889 35.0098H168.029C168.135 34.3652 168.328 33.5859 168.609 32.6719C168.891 31.7461 170.379 27.375 173.074 19.5586H177.539L169.225 41.584C167.713 45.627 165.193 47.6484 161.666 47.6484C160.752 47.6484 159.861 47.5488 158.994 47.3496V44.0801C159.615 44.2207 160.324 44.291 161.121 44.291C163.113 44.291 164.514 43.1367 165.322 40.8281L166.043 39L158.238 19.5586ZM192.041 39L184.588 17.5371H184.447C184.646 20.7246 184.746 23.7129 184.746 26.502V39H180.932V13.3008H186.855L193.992 33.7441H194.098L201.445 13.3008H207.387V39H203.344V26.291C203.344 25.0137 203.373 23.3496 203.432 21.2988C203.502 19.248 203.561 18.0059 203.607 17.5723H203.467L195.75 39H192.041ZM225.879 39L225.053 36.293H224.912C223.975 37.4766 223.031 38.2852 222.082 38.7188C221.133 39.1406 219.914 39.3516 218.426 39.3516C216.516 39.3516 215.021 38.8359 213.943 37.8047C212.877 36.7734 212.344 35.3145 212.344 33.4277C212.344 31.4238 213.088 29.9121 214.576 28.8926C216.064 27.873 218.332 27.3164 221.379 27.2227L224.736 27.1172V26.0801C224.736 24.8379 224.443 23.9121 223.857 23.3027C223.283 22.6816 222.387 22.3711 221.168 22.3711C220.172 22.3711 219.217 22.5176 218.303 22.8105C217.389 23.1035 216.51 23.4492 215.666 23.8477L214.33 20.8945C215.385 20.3438 216.539 19.9277 217.793 19.6465C219.047 19.3535 220.23 19.207 221.344 19.207C223.816 19.207 225.68 19.7461 226.934 20.8242C228.199 21.9023 228.832 23.5957 228.832 25.9043V39H225.879ZM219.727 36.1875C221.227 36.1875 222.428 35.7715 223.33 34.9395C224.244 34.0957 224.701 32.918 224.701 31.4062V29.7188L222.205 29.8242C220.26 29.8945 218.842 30.2227 217.951 30.8086C217.072 31.3828 216.633 32.2676 216.633 33.4629C216.633 34.3301 216.891 35.0039 217.406 35.4844C217.922 35.9531 218.695 36.1875 219.727 36.1875ZM241.84 36.0117C242.848 36.0117 243.855 35.8535 244.863 35.5371V38.6484C244.406 38.8477 243.814 39.0117 243.088 39.1406C242.373 39.2812 241.629 39.3516 240.855 39.3516C236.941 39.3516 234.984 37.2891 234.984 33.1641V22.6875H232.33V20.8594L235.178 19.3477L236.584 15.2344H239.133V19.5586H244.67V22.6875H239.133V33.0938C239.133 34.0898 239.379 34.8281 239.871 35.3086C240.375 35.7773 241.031 36.0117 241.84 36.0117ZM256.605 39.3516C253.664 39.3516 251.426 38.4961 249.891 36.7852C248.367 35.0625 247.605 32.5957 247.605 29.3848C247.605 26.1152 248.402 23.6016 249.996 21.8438C251.602 20.0859 253.916 19.207 256.939 19.207C258.99 19.207 260.836 19.5879 262.477 20.3496L261.229 23.6719C259.482 22.9922 258.041 22.6523 256.904 22.6523C253.541 22.6523 251.859 24.8848 251.859 29.3496C251.859 31.5293 252.275 33.1699 253.107 34.2715C253.951 35.3613 255.182 35.9062 256.799 35.9062C258.639 35.9062 260.379 35.4492 262.02 34.5352V38.1387C261.281 38.5723 260.49 38.8828 259.646 39.0703C258.814 39.2578 257.801 39.3516 256.605 39.3516ZM283.693 39H279.545V27.0469C279.545 25.5469 279.24 24.4277 278.631 23.6895C278.033 22.9512 277.078 22.582 275.766 22.582C274.031 22.582 272.754 23.1035 271.934 24.1465C271.125 25.1777 270.721 26.9121 270.721 29.3496V39H266.59V11.6484H270.721V18.5918C270.721 19.7051 270.65 20.8945 270.51 22.1602H270.773C271.336 21.2227 272.115 20.4961 273.111 19.9805C274.119 19.4648 275.291 19.207 276.627 19.207C281.338 19.207 283.693 21.5801 283.693 26.3262V39Z" fill="black"/>
</mask>
<g mask="url(#mask0)">
<rect y="1" width="317.248" height="24" fill="#AB0022"/>
<rect y="25" width="341.398" height="24" fill="#1B4DA9"/>
</g>
</g>
<defs>
<clipPath id="clip0">
<rect width="292" height="48" fill="white"/>
</clipPath>
</defs>
</svg>
