<svg width="334" height="48" viewBox="0 0 334 48" fill="none" xmlns="http://www.w3.org/2000/svg">
<g clip-path="url(#clip0)">
<mask id="mask0" mask-type="alpha" maskUnits="userSpaceOnUse" x="46" y="10" width="281" height="37">
<path d="M63.4082 20.0703C63.4082 22.7539 62.5293 24.8105 60.7715 26.2402C59.0137 27.6699 56.5117 28.3848 53.2656 28.3848H50.5938V38H46.3926V12.3008H53.793C57.0039 12.3008 59.4062 12.957 61 14.2695C62.6055 15.582 63.4082 17.5156 63.4082 20.0703ZM50.5938 24.8516H52.8262C54.9824 24.8516 56.5645 24.4766 57.5723 23.7266C58.5801 22.9766 59.084 21.8047 59.084 20.2109C59.084 18.7344 58.6328 17.6328 57.7305 16.9062C56.8281 16.1797 55.4219 15.8164 53.5117 15.8164H50.5938V24.8516ZM85.3457 28.2441C85.3457 31.4199 84.5312 33.8984 82.9023 35.6797C81.2734 37.4609 79.0059 38.3516 76.0996 38.3516C74.2832 38.3516 72.6777 37.9414 71.2832 37.1211C69.8887 36.3008 68.8164 35.123 68.0664 33.5879C67.3164 32.0527 66.9414 30.2715 66.9414 28.2441C66.9414 25.0918 67.75 22.6309 69.3672 20.8613C70.9844 19.0918 73.2637 18.207 76.2051 18.207C79.0176 18.207 81.2441 19.1152 82.8848 20.9316C84.5254 22.7363 85.3457 25.1738 85.3457 28.2441ZM71.1953 28.2441C71.1953 32.7324 72.8535 34.9766 76.1699 34.9766C79.4512 34.9766 81.0918 32.7324 81.0918 28.2441C81.0918 23.8027 79.4395 21.582 76.1348 21.582C74.4004 21.582 73.1406 22.1562 72.3555 23.3047C71.582 24.4531 71.1953 26.0996 71.1953 28.2441ZM94.0996 27.7344L96.4375 24.8164L102.309 18.5586H107.072L99.25 26.9082L107.564 38H102.713L96.4727 29.4746L94.2051 31.3379V38H90.1094V10.6484H94.2051V23.9902L93.9941 27.7344H94.0996ZM119.201 38.3516C116.178 38.3516 113.811 37.4727 112.1 35.7148C110.4 33.9453 109.551 31.5137 109.551 28.4199C109.551 25.2441 110.342 22.748 111.924 20.9316C113.506 19.1152 115.68 18.207 118.445 18.207C121.012 18.207 123.039 18.9863 124.527 20.5449C126.016 22.1035 126.76 24.248 126.76 26.9785V29.2109H113.805C113.863 31.0977 114.373 32.5508 115.334 33.5703C116.295 34.5781 117.648 35.082 119.395 35.082C120.543 35.082 121.609 34.9766 122.594 34.7656C123.59 34.543 124.656 34.1797 125.793 33.6758V37.0332C124.785 37.5137 123.766 37.8535 122.734 38.0527C121.703 38.252 120.525 38.3516 119.201 38.3516ZM118.445 21.3359C117.133 21.3359 116.078 21.752 115.281 22.584C114.496 23.416 114.027 24.6289 113.875 26.2227H122.699C122.676 24.6172 122.289 23.4043 121.539 22.584C120.789 21.752 119.758 21.3359 118.445 21.3359ZM148.908 20.0703C148.908 22.7539 148.029 24.8105 146.271 26.2402C144.514 27.6699 142.012 28.3848 138.766 28.3848H136.094V38H131.893V12.3008H139.293C142.504 12.3008 144.906 12.957 146.5 14.2695C148.105 15.582 148.908 17.5156 148.908 20.0703ZM136.094 24.8516H138.326C140.482 24.8516 142.064 24.4766 143.072 23.7266C144.08 22.9766 144.584 21.8047 144.584 20.2109C144.584 18.7344 144.133 17.6328 143.23 16.9062C142.328 16.1797 140.922 15.8164 139.012 15.8164H136.094V24.8516ZM165.766 38L164.939 35.293H164.799C163.861 36.4766 162.918 37.2852 161.969 37.7188C161.02 38.1406 159.801 38.3516 158.312 38.3516C156.402 38.3516 154.908 37.8359 153.83 36.8047C152.764 35.7734 152.23 34.3145 152.23 32.4277C152.23 30.4238 152.975 28.9121 154.463 27.8926C155.951 26.873 158.219 26.3164 161.266 26.2227L164.623 26.1172V25.0801C164.623 23.8379 164.33 22.9121 163.744 22.3027C163.17 21.6816 162.273 21.3711 161.055 21.3711C160.059 21.3711 159.104 21.5176 158.189 21.8105C157.275 22.1035 156.396 22.4492 155.553 22.8477L154.217 19.8945C155.271 19.3438 156.426 18.9277 157.68 18.6465C158.934 18.3535 160.117 18.207 161.23 18.207C163.703 18.207 165.566 18.7461 166.82 19.8242C168.086 20.9023 168.719 22.5957 168.719 24.9043V38H165.766ZM159.613 35.1875C161.113 35.1875 162.314 34.7715 163.217 33.9395C164.131 33.0957 164.588 31.918 164.588 30.4062V28.7188L162.092 28.8242C160.146 28.8945 158.729 29.2227 157.838 29.8086C156.959 30.3828 156.52 31.2676 156.52 32.4629C156.52 33.3301 156.777 34.0039 157.293 34.4844C157.809 34.9531 158.582 35.1875 159.613 35.1875ZM184.346 18.207C185.178 18.207 185.863 18.2656 186.402 18.3828L185.998 22.2324C185.412 22.0918 184.803 22.0215 184.17 22.0215C182.518 22.0215 181.176 22.5605 180.145 23.6387C179.125 24.7168 178.615 26.1172 178.615 27.8398V38H174.484V18.5586H177.719L178.264 21.9863H178.475C179.119 20.8262 179.957 19.9062 180.988 19.2266C182.031 18.5469 183.15 18.207 184.346 18.207ZM197.266 35.0117C198.273 35.0117 199.281 34.8535 200.289 34.5371V37.6484C199.832 37.8477 199.24 38.0117 198.514 38.1406C197.799 38.2812 197.055 38.3516 196.281 38.3516C192.367 38.3516 190.41 36.2891 190.41 32.1641V21.6875H187.756V19.8594L190.604 18.3477L192.01 14.2344H194.559V18.5586H200.096V21.6875H194.559V32.0938C194.559 33.0898 194.805 33.8281 195.297 34.3086C195.801 34.7773 196.457 35.0117 197.266 35.0117ZM201.238 18.5586H205.738L209.693 29.5801C210.291 31.1504 210.689 32.627 210.889 34.0098H211.029C211.135 33.3652 211.328 32.5859 211.609 31.6719C211.891 30.7461 213.379 26.375 216.074 18.5586H220.539L212.225 40.584C210.713 44.627 208.193 46.6484 204.666 46.6484C203.752 46.6484 202.861 46.5488 201.994 46.3496V43.0801C202.615 43.2207 203.324 43.291 204.121 43.291C206.113 43.291 207.514 42.1367 208.322 39.8281L209.043 38L201.238 18.5586ZM235.041 38L227.588 16.5371H227.447C227.646 19.7246 227.746 22.7129 227.746 25.502V38H223.932V12.3008H229.855L236.992 32.7441H237.098L244.445 12.3008H250.387V38H246.344V25.291C246.344 24.0137 246.373 22.3496 246.432 20.2988C246.502 18.248 246.561 17.0059 246.607 16.5723H246.467L238.75 38H235.041ZM268.879 38L268.053 35.293H267.912C266.975 36.4766 266.031 37.2852 265.082 37.7188C264.133 38.1406 262.914 38.3516 261.426 38.3516C259.516 38.3516 258.021 37.8359 256.943 36.8047C255.877 35.7734 255.344 34.3145 255.344 32.4277C255.344 30.4238 256.088 28.9121 257.576 27.8926C259.064 26.873 261.332 26.3164 264.379 26.2227L267.736 26.1172V25.0801C267.736 23.8379 267.443 22.9121 266.857 22.3027C266.283 21.6816 265.387 21.3711 264.168 21.3711C263.172 21.3711 262.217 21.5176 261.303 21.8105C260.389 22.1035 259.51 22.4492 258.666 22.8477L257.33 19.8945C258.385 19.3438 259.539 18.9277 260.793 18.6465C262.047 18.3535 263.23 18.207 264.344 18.207C266.816 18.207 268.68 18.7461 269.934 19.8242C271.199 20.9023 271.832 22.5957 271.832 24.9043V38H268.879ZM262.727 35.1875C264.227 35.1875 265.428 34.7715 266.33 33.9395C267.244 33.0957 267.701 31.918 267.701 30.4062V28.7188L265.205 28.8242C263.26 28.8945 261.842 29.2227 260.951 29.8086C260.072 30.3828 259.633 31.2676 259.633 32.4629C259.633 33.3301 259.891 34.0039 260.406 34.4844C260.922 34.9531 261.695 35.1875 262.727 35.1875ZM284.84 35.0117C285.848 35.0117 286.855 34.8535 287.863 34.5371V37.6484C287.406 37.8477 286.814 38.0117 286.088 38.1406C285.373 38.2812 284.629 38.3516 283.855 38.3516C279.941 38.3516 277.984 36.2891 277.984 32.1641V21.6875H275.33V19.8594L278.178 18.3477L279.584 14.2344H282.133V18.5586H287.67V21.6875H282.133V32.0938C282.133 33.0898 282.379 33.8281 282.871 34.3086C283.375 34.7773 284.031 35.0117 284.84 35.0117ZM299.605 38.3516C296.664 38.3516 294.426 37.4961 292.891 35.7852C291.367 34.0625 290.605 31.5957 290.605 28.3848C290.605 25.1152 291.402 22.6016 292.996 20.8438C294.602 19.0859 296.916 18.207 299.939 18.207C301.99 18.207 303.836 18.5879 305.477 19.3496L304.229 22.6719C302.482 21.9922 301.041 21.6523 299.904 21.6523C296.541 21.6523 294.859 23.8848 294.859 28.3496C294.859 30.5293 295.275 32.1699 296.107 33.2715C296.951 34.3613 298.182 34.9062 299.799 34.9062C301.639 34.9062 303.379 34.4492 305.02 33.5352V37.1387C304.281 37.5723 303.49 37.8828 302.646 38.0703C301.814 38.2578 300.801 38.3516 299.605 38.3516ZM326.693 38H322.545V26.0469C322.545 24.5469 322.24 23.4277 321.631 22.6895C321.033 21.9512 320.078 21.582 318.766 21.582C317.031 21.582 315.754 22.1035 314.934 23.1465C314.125 24.1777 313.721 25.9121 313.721 28.3496V38H309.59V10.6484H313.721V17.5918C313.721 18.7051 313.65 19.8945 313.51 21.1602H313.773C314.336 20.2227 315.115 19.4961 316.111 18.9805C317.119 18.4648 318.291 18.207 319.627 18.207C324.338 18.207 326.693 20.5801 326.693 25.3262V38Z" fill="black"/>
</mask>
<g mask="url(#mask0)">
<rect width="334" height="24" fill="#AB0022"/>
<rect y="24" width="334" height="24" fill="#1B4DA9"/>
</g>
<g clip-path="url(#clip1)">
<mask id="mask1" mask-type="alpha" maskUnits="userSpaceOnUse" x="4" y="8" width="36" height="32">
<path d="M11.8453 10.4116C12.5598 9.17395 13.8803 8.41155 15.3094 8.41155L28.6906 8.41155C30.1196 8.41155 31.4402 9.17395 32.1547 10.4116L38.8453 22C39.5598 23.2376 39.5598 24.7624 38.8453 26L32.1547 37.5885C31.4402 38.8261 30.1196 39.5885 28.6906 39.5885L15.3094 39.5885C13.8803 39.5885 12.5598 38.8261 11.8453 37.5885L5.15469 26C4.44016 24.7624 4.44016 23.2376 5.15469 22L11.8453 10.4116Z" fill="black"/>
</mask>
<g mask="url(#mask1)">
<rect x="4" y="6" width="36" height="36" fill="white"/>
<rect x="22" y="50.5808" width="17.2045" height="17.2045" transform="rotate(-135 22 50.5808)" fill="#AB0022"/>
<path d="M22 21.75L9.27207 9.0221L22 -3.70584L34.7279 9.02206L22 21.75Z" fill="#AB0022"/>
<rect x="-4.61395" y="23.614" width="16.955" height="17.5009" transform="rotate(-45 -4.61395 23.614)" fill="#1B4DA9"/>
<path d="M24.25 24L36.4154 11.8346L48.5808 24L36.4154 36.1654L24.25 24Z" fill="#1B4DA9"/>
<path d="M15.3094 8.91155L28.6906 8.91155C29.941 8.91155 31.0965 9.57865 31.7217 10.6616L38.4123 22.25C39.0375 23.3329 39.0375 24.6671 38.4123 25.75L31.7217 37.3385C31.0965 38.4214 29.941 39.0885 28.6906 39.0885L15.3094 39.0885C14.059 39.0885 12.9035 38.4214 12.2783 37.3385L5.5877 25.75C4.96249 24.6671 4.96249 23.3329 5.5877 22.25L12.2783 10.6616C12.9035 9.57865 14.059 8.91155 15.3094 8.91155Z" stroke="#B8B8B8"/>
</g>
</g>
</g>
<defs>
<clipPath id="clip0">
<rect width="334" height="48" fill="white"/>
</clipPath>
<clipPath id="clip1">
<rect width="36" height="36" fill="white" transform="translate(4 6)"/>
</clipPath>
</defs>
</svg>
