<svg width="32" height="32" viewBox="0 0 32 32" fill="none" xmlns="http://www.w3.org/2000/svg">
<g clip-path="url(#clip0)">
<mask id="mask0" mask-type="alpha" maskUnits="userSpaceOnUse" x="-4" y="-5" width="40" height="42">
<path d="M6.84529 4.1436C7.55982 2.906 8.88033 2.1436 10.3094 2.1436L21.6906 2.1436C23.1197 2.1436 24.4402 2.906 25.1547 4.1436L30.8453 14C31.5598 15.2376 31.5598 16.7624 30.8453 18L25.1547 27.8564C24.4402 29.094 23.1197 29.8564 21.6906 29.8564L10.3094 29.8564C8.88033 29.8564 7.55982 29.094 6.84529 27.8564L1.15469 18C0.440161 16.7624 0.440161 15.2376 1.15469 14L6.84529 4.1436Z" fill="black"/>
</mask>
<g mask="url(#mask0)">
<rect width="32" height="321" fill="white"/>
<rect x="16" y="39.6274" width="15.2929" height="15.2929" transform="rotate(-135 16 39.6274)" fill="#AB0022"/>
<path d="M16 14L4.68628 2.68631L16 -8.62742L27.3137 2.68628L16 14Z" fill="#AB0022"/>
<rect x="-7.65686" y="15.6569" width="15.0711" height="15.5563" transform="rotate(-45 -7.65686 15.6569)" fill="#1B4DA9"/>
<path d="M18 16L28.8137 5.18629L39.6274 16L28.8137 26.8137L18 16Z" fill="#1B4DA9"/>
<path d="M10.3094 2.6436L21.6906 2.6436C22.941 2.6436 24.0965 3.3107 24.7217 4.3936L30.4123 14.25C31.0375 15.3329 31.0375 16.6671 30.4123 17.75L24.7217 27.6064C24.0965 28.6893 22.941 29.3564 21.6906 29.3564L10.3094 29.3564C9.05896 29.3564 7.90352 28.6893 7.2783 27.6064L1.5877 17.75C0.96249 16.6671 0.96249 15.3329 1.58771 14.25L7.2783 4.3936C7.90352 3.3107 9.05896 2.6436 10.3094 2.6436Z" stroke="#B8B8B8"/>
</g>
</g>
<defs>
<clipPath id="clip0">
<rect width="32" height="32" fill="white"/>
</clipPath>
</defs>
</svg>
